PathFileType	4	(X/Y/Z)	C:\Users\Basilio\Documents\Thesis Gigler\squatting_fais\c3dfiles\058\SJ_pre4\markers_experimental.trc
DataRate	CameraRate	NumFrames	NumMarkers	Units	OrigDataRate	OrigDataStartFrame	OrigNumFrames
200.000000	200.000000	4	61	mm	200.000000	967	1290
Frame#	Time	FHD			LBHD			RBHD			C7			T10			CLAV			LSHO			LUUPA			LMUPA			LDUPA			LLEP			LMEP			LRAD			LUL			LRFIN			RSHO			RUPA1			RMUPA			RDUPA			RLEP			RMEP			RRAD			RUL			RUFIN			LASI			RASI			USACR			LSACR			RSACR			LTHI1			LTHI2			LTHI3			LTHI4			LLFC			LMFC			LTIB1			LTIB2			LTIB3			LTIB4			LLMAL			LMMAL			LHEE			LMT1			LMT2			LMT5			RTHI			RTHI2			RTHI3			RTHI4			RLFC			RMFC			RTIB1			RTIB2			RTIB3			RTIB4			RLMAL			RMMAL			RHEE			RMT1			RMT2			RMT5			
		X1	Y1	Z1	X2	Y2	Z2	X3	Y3	Z3	X4	Y4	Z4	X5	Y5	Z5	X6	Y6	Z6	X7	Y7	Z7	X8	Y8	Z8	X9	Y9	Z9	X10	Y10	Z10	X11	Y11	Z11	X12	Y12	Z12	X13	Y13	Z13	X14	Y14	Z14	X15	Y15	Z15	X16	Y16	Z16	X17	Y17	Z17	X18	Y18	Z18	X19	Y19	Z19	X20	Y20	Z20	X21	Y21	Z21	X22	Y22	Z22	X23	Y23	Z23	X24	Y24	Z24	X25	Y25	Z25	X26	Y26	Z26	X27	Y27	Z27	X28	Y28	Z28	X29	Y29	Z29	X30	Y30	Z30	X31	Y31	Z31	X32	Y32	Z32	X33	Y33	Z33	X34	Y34	Z34	X35	Y35	Z35	X36	Y36	Z36	X37	Y37	Z37	X38	Y38	Z38	X39	Y39	Z39	X40	Y40	Z40	X41	Y41	Z41	X42	Y42	Z42	X43	Y43	Z43	X44	Y44	Z44	X45	Y45	Z45	X46	Y46	Z46	X47	Y47	Z47	X48	Y48	Z48	X49	Y49	Z49	X50	Y50	Z50	X51	Y51	Z51	X52	Y52	Z52	X53	Y53	Z53	X54	Y54	Z54	X55	Y55	Z55	X56	Y56	Z56	X57	Y57	Z57	X58	Y58	Z58	X59	Y59	Z59	X60	Y60	Z60	X61	Y61	Z61	

968	4.835	4.451423645019532	1623.641967773438	-849.8215942382815	-151.6317291259766	1565.854248046875	-920.1827392578127	11.63083839416504	1633.960571289063	-992.9785766601565	-194.2008361816407	1447.384765625	-928.1033935546877	-280.6688537597657	1148.330444335938	-918.2222290039065	-39.05961608886719	1358.8330078125	-921.163269042969	-66.06321716308595	1428.318725585938	-1089.367553710938	-248.171371459961	1348.2568359375	-1220.55078125	-231.4170989990235	1301.609741210938	-1231.150756835938	-289.5914001464844	1296.37841796875	-1248.51806640625	-340.5602111816407	1233.445434570313	-1270.18115234375	-382.0113830566407	1235.494750976563	-1207.57861328125	-295.3692321777344	1023.349609375	-1104.273315429688	-278.6077575683594	975.8691406250002	-1169.615478515625	-213.6386260986329	1028.00634765625	-1105.095458984375	-67.95262145996095	1446.183227539063	-757.5126953125001	-210.799057006836	1352.426513671875	-594.5266723632814	-190.3592071533203	1305.832763671875	-597.3322753906251	-235.8418579101563	1294.806274414063	-561.3975830078126	-278.5409240722657	1246.661865234375	-529.5498046875001	-345.7508850097657	1238.127075195313	-587.5999755859376	-241.2688446044922	1042.641357421875	-696.7959594726564	-224.9768981933594	994.101257324219	-633.9284667968751	-177.3943023681641	1006.615783691406	-728.1319580078126	-163.184814453125	900.236999511719	-1024.791625976563	-161.7101135253907	912.3157348632815	-796.0904541015627	-326.7141723632813	1036.855224609375	-902.6914062500002	-341.8408813476563	1006.697509765625	-929.3420410156252	-340.6508178710938	1008.242309570313	-871.422546386719	-137.98828125	674.6828002929689	-1125.152954101563	-79.48365783691408	613.1104736328126	-1132.701538085938	-35.91986465454102	629.1206665039064	-1112.253662109375	-84.64288330078126	552.9396972656251	-1123.292114257813	-49.17373275756837	468.3172607421876	-1123.648071289063	-19.5103759765625	457.3642883300782	-999.3336181640627	-41.49964904785157	326.1305541992188	-1093.938232421875	-107.5688400268555	322.6269836425782	-1149.623046875	-74.70506286621095	297.5970153808594	-1127.802612304688	-120.4322052001953	226.3294830322266	-1103.723876953125	-277.9025878906251	91.99265289306642	-1123.939086914063	-238.4211730957032	89.3029022216797	-1033.439331054688	-341.5735778808594	52.60119628906251	-1064.793090820313	-118.617660522461	60.00597763061525	-1100.586181640625	-126.2243728637696	58.25336837768556	-1147.969116210938	-185.5416412353516	36.58796310424805	-1191.503662109375	-228.4124450683594	742.9579467773439	-680.7251586914064	-170.923583984375	711.7339477539064	-662.9832763671876	-140.5338897705078	723.1234741210939	-664.8644409179689	-163.0399627685547	626.4931640625001	-666.6792602539064	-91.17047119140626	478.9700012207032	-644.7230834960939	-34.98904418945313	455.3941955566407	-768.3272705078127	-98.72656250000003	280.0662841796876	-710.7949829101564	-173.1344146728516	231.1445465087891	-645.7130737304689	-140.6177368164063	209.6797027587891	-672.5330200195314	-163.8105621337891	168.6216888427735	-705.8357543945314	-270.4828186035157	96.78703308105472	-668.2351074218751	-214.8991241455079	94.28430938720705	-746.3817749023439	-324.4154357910157	52.88824844360353	-742.4912109375001	-121.3075408935547	51.0431365966797	-660.3262329101564	-140.8822326660157	60.37723541259767	-612.5025024414064	-203.0545654296876	30.31913948059083	-579.4198608398439	
969	4.84	3.369256973266602	1626.859252929688	-849.2341308593752	-152.6667175292969	1568.111572265625	-919.6568603515627	11.12203502655029	1637.203979492188	-992.3341064453127	-194.5236511230469	1449.766479492188	-928.2905273437502	-280.2161560058594	1150.943237304688	-918.3288574218752	-39.29488372802735	1362.252075195313	-920.5066528320315	-65.58707427978517	1431.27978515625	-1088.830200195313	-246.4560089111329	1350.081420898438	-1220.718017578125	-228.0230712890626	1303.500122070313	-1231.586181640625	-287.4146423339844	1297.971801757813	-1248.877807617188	-338.0507507324219	1234.565795898438	-1270.91845703125	-379.7770996093751	1236.556396484375	-1208.756469726563	-293.9331665039063	1024.860595703125	-1104.114868164063	-276.5638427734376	977.1531982421877	-1169.0078125	-212.4085083007813	1029.722412109375	-1104.74609375	-68.23038482666017	1449.042846679688	-756.9552612304689	-211.5801086425782	1354.523315429688	-594.9587402343751	-191.0195465087891	1307.8623046875	-597.5645141601564	-236.7897644042969	1296.9482421875	-561.8734741210939	-279.1338195800782	1248.212036132813	-530.2242431640626	-346.2371520996094	1239.966186523438	-588.5383911132814	-241.9295959472657	1044.180908203125	-697.3217773437501	-225.1033630371094	995.5906982421877	-634.6542358398439	-177.0296478271485	1008.021606445313	-728.5177612304689	-162.388671875	903.3657836914065	-1025.051635742188	-160.92041015625	914.7192382812502	-796.343444824219	-326.1312866210938	1039.309692382813	-903.0322265625002	-341.1675720214844	1009.159545898438	-929.4810180664065	-339.9250183105469	1011.117065429688	-871.8273925781252	-137.970458984375	676.9242553710939	-1124.533935546875	-79.12267303466798	615.3566284179689	-1131.881958007813	-36.02073287963868	631.0270996093751	-1110.82470703125	-84.5142059326172	555.0619506835939	-1123.383422851563	-50.85256195068361	469.2693481445314	-1122.708862304688	-20.65846633911133	459.0349121093751	-998.0271606445315	-42.3038673400879	326.8026428222657	-1093.349731445313	-108.8147125244141	323.4175415039063	-1149.078369140625	-76.46792602539064	298.1752014160157	-1127.284912109375	-121.3979110717774	227.1502075195313	-1103.330810546875	-277.9384765625001	92.09207153320314	-1124.14990234375	-238.7012023925782	89.44314575195314	-1033.53076171875	-341.6132507324219	52.62760543823244	-1064.916137695313	-118.575180053711	59.98507690429689	-1100.58740234375	-126.3352203369141	58.04213333129884	-1147.474609375	-185.5020751953125	36.62718963623048	-1191.484497070313	-228.5029754638672	745.7750244140626	-680.7730712890626	-171.0927276611328	714.2453613281251	-663.3659667968751	-140.7262573242188	725.8817138671876	-665.3826904296876	-163.3762969970703	629.1948242187501	-666.6248168945314	-91.91769409179689	480.402313232422	-644.5292968750001	-35.21625900268555	456.7730407714845	-768.4021606445315	-99.82405090332034	280.9553222656251	-710.9508666992189	-174.1395111083985	231.8672332763672	-646.0310058593751	-141.4695739746094	210.2071685791016	-672.4987792968751	-164.3447875976563	169.2838897705078	-706.0241699218751	-270.6803588867188	96.89447784423831	-668.2417602539064	-214.9674224853516	94.38974761962892	-746.3662719726564	-324.3828735351563	52.84858703613283	-742.5525512695314	-121.3183517456055	51.0513381958008	-660.3433837890626	-140.8496246337891	60.51676559448244	-612.5423583984376	-203.0508880615235	30.3448886871338	-579.4179687500001	
970	4.845	3.005837440490724	1630.364624023438	-848.8306884765627	-153.2656555175782	1571.548461914063	-919.2337646484377	10.66857528686524	1640.542358398438	-991.7691040039065	-194.8902130126954	1452.520874023438	-928.3906860351565	-279.8227539062501	1153.963989257813	-918.4866943359377	-39.38895797729493	1365.401733398438	-919.9439697265627	-65.22090911865236	1434.509887695313	-1088.214721679688	-244.0513763427735	1351.808227539063	-1220.65478515625	-226.160385131836	1305.40966796875	-1231.302978515625	-285.0222167968751	1299.857666015625	-1249.080322265625	-334.8601074218751	1235.837890625	-1271.58984375	-377.5270996093751	1238.122924804688	-1209.802368164063	-292.3616027832032	1026.629638671875	-1103.946899414063	-274.5263977050782	978.5579223632815	-1168.40234375	-210.6255035400391	1031.623657226563	-1104.493286132813	-69.11923217773439	1452.032958984375	-756.3566284179689	-212.3237762451172	1356.937866210938	-595.4970092773439	-191.6399078369141	1310.41748046875	-597.7785034179689	-238.0437164306641	1299.270874023438	-562.2884521484376	-279.9249572753907	1249.972534179688	-530.8450317382814	-346.8582763671876	1241.97119140625	-589.4272460937501	-241.2850341796876	1046.59521484375	-697.8395385742189	-225.562973022461	997.4290161132815	-635.0556030273439	-177.5027618408203	1009.751220703125	-728.5709838867189	-161.5737915039063	906.7705078125002	-1025.115844726563	-160.1412353515625	917.3164062500002	-796.6016845703127	-325.3787841796876	1041.916137695313	-903.2163696289065	-340.2543334960938	1011.865661621094	-929.6482543945315	-339.4486083984376	1013.786254882813	-871.988464355469	-137.8679504394532	679.3292846679689	-1123.903564453125	-79.04891967773439	617.4929199218751	-1131.092895507813	-36.21733474731446	632.9177856445314	-1109.617431640625	-84.87326049804689	557.0668945312501	-1122.970581054688	-52.36635208129884	470.4736328125001	-1122.067993164063	-22.9820671081543	460.3245544433595	-997.2764892578127	-44.04475402832032	328.0063781738282	-1092.68212890625	-109.7585678100586	324.2760009765626	-1148.504638671875	-78.37331390380861	298.9680480957032	-1126.694091796875	-121.9711380004883	228.0208587646485	-1102.951904296875	-278.0437622070313	92.09503173828126	-1124.293334960938	-238.8764801025391	89.57857513427736	-1033.706420898438	-341.6735229492188	52.6063690185547	-1065.059326171875	-118.5990600585938	60.02670669555665	-1100.552001953125	-126.3347320556641	58.03419494628908	-1147.44384765625	-185.4073333740235	36.61267471313477	-1191.46923828125	-228.5895538330079	748.7500610351564	-680.8745117187501	-171.3328704833985	717.0634765625001	-663.8579711914064	-141.0091247558594	728.6510620117189	-665.8069458007814	-163.8926391601563	631.7250976562501	-666.5322875976564	-93.29720306396486	482.254364013672	-645.0187377929689	-35.78432083129884	458.4415588378907	-768.4831542968752	-101.1926956176758	281.7810058593751	-710.7533569335939	-175.7277221679688	232.4657592773438	-646.1600952148439	-142.4630737304688	211.2699127197266	-672.4846801757814	-165.1282653808594	169.9952850341797	-706.0858154296876	-270.9741210937501	97.06092071533206	-668.2467041015626	-215.0844421386719	94.4862518310547	-746.2715454101564	-324.4928894042969	52.86348724365236	-742.5704345703126	-121.3180694580078	51.09084701538087	-660.3360595703126	-140.8660278320313	60.53092575073244	-612.5633544921876	-203.0198364257813	30.38132667541505	-579.4693603515626	
971	4.850000000000001	2.261794090270997	1634.049438476563	-848.3308105468752	-154.5297088623047	1575.092529296875	-918.9361572265627	9.982839584350588	1644.210205078125	-991.192565917969	-195.0161285400391	1455.875	-928.428161621094	-279.4067687988282	1156.804443359375	-918.571960449219	-39.30688095092774	1369.018676757813	-919.2378540039065	-65.08908081054689	1438.068359375	-1087.673583984375	-242.7196960449219	1354.19287109375	-1220.528198242188	-224.4888153076172	1307.650512695313	-1231.05859375	-282.8743591308594	1301.8798828125	-1249.375610351563	-332.2438964843751	1237.4267578125	-1272.207885742188	-375.5427856445313	1239.4541015625	-1210.785278320313	-290.9093322753907	1028.897094726563	-1103.372680664063	-272.4569702148438	980.1330566406252	-1167.51953125	-209.4017486572266	1034.106079101563	-1103.946655273438	-69.44421386718751	1455.280029296875	-755.8609008789064	-213.5573272705079	1359.633544921875	-596.1754760742189	-192.7775115966797	1313.22216796875	-597.7649536132814	-238.9964599609376	1302.009765625	-562.8039550781251	-280.5082397460938	1252.212646484375	-531.4729003906251	-347.2249450683594	1243.936157226563	-590.6239624023439	-241.8304748535157	1048.252075195313	-698.4204711914064	-225.6681365966797	999.2807617187502	-635.5621337890626	-177.1695098876953	1011.757080078125	-728.6140136718751	-160.8907012939453	910.3806762695315	-1025.376342773438	-159.2575225830078	921.2709960937502	-797.3192138671877	-324.4610900878907	1045.223266601563	-903.5354003906252	-339.4316711425782	1015.099914550781	-929.9107666015627	-338.7796936035157	1016.822387695313	-872.1999511718752	-137.7619171142578	681.6319580078126	-1123.690307617188	-79.46878051757814	619.4788208007814	-1130.688110351563	-36.74857330322266	634.5966796875001	-1108.614501953125	-85.45761108398439	559.1753540039064	-1122.788940429688	-54.11048507690431	471.7879028320314	-1121.579345703125	-25.48051834106446	462.5185546875001	-996.6348266601565	-45.45919036865235	329.2667541503907	-1092.162231445313	-111.2101211547852	325.1533203125001	-1148.411010742188	-79.54711151123048	300.0353698730469	-1126.444213867188	-122.702865600586	228.8017272949219	-1102.747924804688	-277.8028259277344	91.9781951904297	-1124.44384765625	-239.1071777343751	89.81493377685548	-1033.894775390625	-341.7354431152344	52.58573532104494	-1065.217529296875	-118.6156768798828	60.01222610473634	-1100.559326171875	-126.2842330932617	58.10288238525392	-1147.511352539063	-185.3856658935547	36.64343643188477	-1191.448120117188	-228.7150878906251	751.6788330078126	-681.1284179687501	-171.6067047119141	719.6895141601564	-664.3389282226564	-141.2892456054688	731.4194335937501	-666.2234497070314	-164.6345825195313	634.6069946289064	-666.4707031250001	-94.52272796630861	484.196746826172	-646.0281982421876	-37.32235336303712	459.9060974121095	-768.6875610351565	-102.572868347168	282.8549499511719	-710.5373535156251	-176.8179626464844	233.3025970458985	-646.4802856445314	-143.6798706054688	212.2844543457032	-672.4355468750001	-166.0647430419922	170.5380249023438	-705.9616699218751	-271.2160034179688	97.12989044189456	-668.2011108398439	-215.2070465087891	94.62972259521486	-746.1861572265626	-324.5254211425782	52.82231521606447	-742.5346679687501	-121.373161315918	51.16211318969728	-660.3699340820314	-140.9022369384766	60.54825592041017	-612.5505371093751	-203.1673889160157	30.34385490417481	-579.4830322265626	
